<?xml version="1.0" encoding="utf-8" standalone="no"?>
<!DOCTYPE svg PUBLIC "-//W3C//DTD SVG 1.1//EN"
  "http://www.w3.org/Graphics/SVG/1.1/DTD/svg11.dtd">
<svg xmlns:xlink="http://www.w3.org/1999/xlink" width="864pt" height="576pt" viewBox="0 0 864 576" xmlns="http://www.w3.org/2000/svg" version="1.1">
 <metadata>
  <rdf:RDF xmlns:dc="http://purl.org/dc/elements/1.1/" xmlns:cc="http://creativecommons.org/ns#" xmlns:rdf="http://www.w3.org/1999/02/22-rdf-syntax-ns#">
   <cc:Work>
    <dc:type rdf:resource="http://purl.org/dc/dcmitype/StillImage"/>
    <dc:date>2025-05-15T09:41:52.600541</dc:date>
    <dc:format>image/svg+xml</dc:format>
    <dc:creator>
     <cc:Agent>
      <dc:title>Matplotlib v3.7.2, https://matplotlib.org/</dc:title>
     </cc:Agent>
    </dc:creator>
   </cc:Work>
  </rdf:RDF>
 </metadata>
 <defs>
  <style type="text/css">*{stroke-linejoin: round; stroke-linecap: butt}</style>
 </defs>
 <g id="figure_1">
  <g id="patch_1">
   <path d="M 0 576 
L 864 576 
L 864 0 
L 0 0 
L 0 576 
z
" style="fill: none"/>
  </g>
  <g id="axes_1">
   <g id="patch_2">
    <path d="M 85.236 489.652 
L 827.057571 489.652 
L 827.057571 41.136 
L 85.236 41.136 
L 85.236 489.652 
z
" style="fill: none"/>
   </g>
   <g id="matplotlib.axis_1">
    <g id="xtick_1">
     <g id="text_1">
      <!-- Test on -->
      <g style="fill: #262626" transform="translate(107.137255 511.32525) scale(0.176 -0.176)">
       <defs>
        <path id="DejaVuSans-54" d="M -19 4666 
L 3928 4666 
L 3928 4134 
L 2272 4134 
L 2272 0 
L 1638 0 
L 1638 4134 
L -19 4134 
L -19 4666 
z
" transform="scale(0.015625)"/>
        <path id="DejaVuSans-65" d="M 3597 1894 
L 3597 1613 
L 953 1613 
Q 991 1019 1311 708 
Q 1631 397 2203 397 
Q 2534 397 2845 478 
Q 3156 559 3463 722 
L 3463 178 
Q 3153 47 2828 -22 
Q 2503 -91 2169 -91 
Q 1331 -91 842 396 
Q 353 884 353 1716 
Q 353 2575 817 3079 
Q 1281 3584 2069 3584 
Q 2775 3584 3186 3129 
Q 3597 2675 3597 1894 
z
M 3022 2063 
Q 3016 2534 2758 2815 
Q 2500 3097 2075 3097 
Q 1594 3097 1305 2825 
Q 1016 2553 972 2059 
L 3022 2063 
z
" transform="scale(0.015625)"/>
        <path id="DejaVuSans-73" d="M 2834 3397 
L 2834 2853 
Q 2591 2978 2328 3040 
Q 2066 3103 1784 3103 
Q 1356 3103 1142 2972 
Q 928 2841 928 2578 
Q 928 2378 1081 2264 
Q 1234 2150 1697 2047 
L 1894 2003 
Q 2506 1872 2764 1633 
Q 3022 1394 3022 966 
Q 3022 478 2636 193 
Q 2250 -91 1575 -91 
Q 1294 -91 989 -36 
Q 684 19 347 128 
L 347 722 
Q 666 556 975 473 
Q 1284 391 1588 391 
Q 1994 391 2212 530 
Q 2431 669 2431 922 
Q 2431 1156 2273 1281 
Q 2116 1406 1581 1522 
L 1381 1569 
Q 847 1681 609 1914 
Q 372 2147 372 2553 
Q 372 3047 722 3315 
Q 1072 3584 1716 3584 
Q 2034 3584 2315 3537 
Q 2597 3491 2834 3397 
z
" transform="scale(0.015625)"/>
        <path id="DejaVuSans-74" d="M 1172 4494 
L 1172 3500 
L 2356 3500 
L 2356 3053 
L 1172 3053 
L 1172 1153 
Q 1172 725 1289 603 
Q 1406 481 1766 481 
L 2356 481 
L 2356 0 
L 1766 0 
Q 1100 0 847 248 
Q 594 497 594 1153 
L 594 3053 
L 172 3053 
L 172 3500 
L 594 3500 
L 594 4494 
L 1172 4494 
z
" transform="scale(0.015625)"/>
        <path id="DejaVuSans-20" transform="scale(0.015625)"/>
        <path id="DejaVuSans-6f" d="M 1959 3097 
Q 1497 3097 1228 2736 
Q 959 2375 959 1747 
Q 959 1119 1226 758 
Q 1494 397 1959 397 
Q 2419 397 2687 759 
Q 2956 1122 2956 1747 
Q 2956 2369 2687 2733 
Q 2419 3097 1959 3097 
z
M 1959 3584 
Q 2709 3584 3137 3096 
Q 3566 2609 3566 1747 
Q 3566 888 3137 398 
Q 2709 -91 1959 -91 
Q 1206 -91 779 398 
Q 353 888 353 1747 
Q 353 2609 779 3096 
Q 1206 3584 1959 3584 
z
" transform="scale(0.015625)"/>
        <path id="DejaVuSans-6e" d="M 3513 2113 
L 3513 0 
L 2938 0 
L 2938 2094 
Q 2938 2591 2744 2837 
Q 2550 3084 2163 3084 
Q 1697 3084 1428 2787 
Q 1159 2491 1159 1978 
L 1159 0 
L 581 0 
L 581 3500 
L 1159 3500 
L 1159 2956 
Q 1366 3272 1645 3428 
Q 1925 3584 2291 3584 
Q 2894 3584 3203 3211 
Q 3513 2838 3513 2113 
z
" transform="scale(0.015625)"/>
       </defs>
       <use xlink:href="#DejaVuSans-54"/>
       <use xlink:href="#DejaVuSans-65" x="44.083984"/>
       <use xlink:href="#DejaVuSans-73" x="105.607422"/>
       <use xlink:href="#DejaVuSans-74" x="157.707031"/>
       <use xlink:href="#DejaVuSans-20" x="196.916016"/>
       <use xlink:href="#DejaVuSans-6f" x="228.703125"/>
       <use xlink:href="#DejaVuSans-6e" x="289.884766"/>
      </g>
      <!-- training -->
      <g style="fill: #262626" transform="translate(104.13288 531.0334) scale(0.176 -0.176)">
       <defs>
        <path id="DejaVuSans-72" d="M 2631 2963 
Q 2534 3019 2420 3045 
Q 2306 3072 2169 3072 
Q 1681 3072 1420 2755 
Q 1159 2438 1159 1844 
L 1159 0 
L 581 0 
L 581 3500 
L 1159 3500 
L 1159 2956 
Q 1341 3275 1631 3429 
Q 1922 3584 2338 3584 
Q 2397 3584 2469 3576 
Q 2541 3569 2628 3553 
L 2631 2963 
z
" transform="scale(0.015625)"/>
        <path id="DejaVuSans-61" d="M 2194 1759 
Q 1497 1759 1228 1600 
Q 959 1441 959 1056 
Q 959 750 1161 570 
Q 1363 391 1709 391 
Q 2188 391 2477 730 
Q 2766 1069 2766 1631 
L 2766 1759 
L 2194 1759 
z
M 3341 1997 
L 3341 0 
L 2766 0 
L 2766 531 
Q 2569 213 2275 61 
Q 1981 -91 1556 -91 
Q 1019 -91 701 211 
Q 384 513 384 1019 
Q 384 1609 779 1909 
Q 1175 2209 1959 2209 
L 2766 2209 
L 2766 2266 
Q 2766 2663 2505 2880 
Q 2244 3097 1772 3097 
Q 1472 3097 1187 3025 
Q 903 2953 641 2809 
L 641 3341 
Q 956 3463 1253 3523 
Q 1550 3584 1831 3584 
Q 2591 3584 2966 3190 
Q 3341 2797 3341 1997 
z
" transform="scale(0.015625)"/>
        <path id="DejaVuSans-69" d="M 603 3500 
L 1178 3500 
L 1178 0 
L 603 0 
L 603 3500 
z
M 603 4863 
L 1178 4863 
L 1178 4134 
L 603 4134 
L 603 4863 
z
" transform="scale(0.015625)"/>
        <path id="DejaVuSans-67" d="M 2906 1791 
Q 2906 2416 2648 2759 
Q 2391 3103 1925 3103 
Q 1463 3103 1205 2759 
Q 947 2416 947 1791 
Q 947 1169 1205 825 
Q 1463 481 1925 481 
Q 2391 481 2648 825 
Q 2906 1169 2906 1791 
z
M 3481 434 
Q 3481 -459 3084 -895 
Q 2688 -1331 1869 -1331 
Q 1566 -1331 1297 -1286 
Q 1028 -1241 775 -1147 
L 775 -588 
Q 1028 -725 1275 -790 
Q 1522 -856 1778 -856 
Q 2344 -856 2625 -561 
Q 2906 -266 2906 331 
L 2906 616 
Q 2728 306 2450 153 
Q 2172 0 1784 0 
Q 1141 0 747 490 
Q 353 981 353 1791 
Q 353 2603 747 3093 
Q 1141 3584 1784 3584 
Q 2172 3584 2450 3431 
Q 2728 3278 2906 2969 
L 2906 3500 
L 3481 3500 
L 3481 434 
z
" transform="scale(0.015625)"/>
       </defs>
       <use xlink:href="#DejaVuSans-74"/>
       <use xlink:href="#DejaVuSans-72" x="39.208984"/>
       <use xlink:href="#DejaVuSans-61" x="80.322266"/>
       <use xlink:href="#DejaVuSans-69" x="141.601562"/>
       <use xlink:href="#DejaVuSans-6e" x="169.384766"/>
       <use xlink:href="#DejaVuSans-69" x="232.763672"/>
       <use xlink:href="#DejaVuSans-6e" x="260.546875"/>
       <use xlink:href="#DejaVuSans-67" x="323.925781"/>
      </g>
      <!-- distribution -->
      <g style="fill: #262626" transform="translate(88.07563 550.74155) scale(0.176 -0.176)">
       <defs>
        <path id="DejaVuSans-64" d="M 2906 2969 
L 2906 4863 
L 3481 4863 
L 3481 0 
L 2906 0 
L 2906 525 
Q 2725 213 2448 61 
Q 2172 -91 1784 -91 
Q 1150 -91 751 415 
Q 353 922 353 1747 
Q 353 2572 751 3078 
Q 1150 3584 1784 3584 
Q 2172 3584 2448 3432 
Q 2725 3281 2906 2969 
z
M 947 1747 
Q 947 1113 1208 752 
Q 1469 391 1925 391 
Q 2381 391 2643 752 
Q 2906 1113 2906 1747 
Q 2906 2381 2643 2742 
Q 2381 3103 1925 3103 
Q 1469 3103 1208 2742 
Q 947 2381 947 1747 
z
" transform="scale(0.015625)"/>
        <path id="DejaVuSans-62" d="M 3116 1747 
Q 3116 2381 2855 2742 
Q 2594 3103 2138 3103 
Q 1681 3103 1420 2742 
Q 1159 2381 1159 1747 
Q 1159 1113 1420 752 
Q 1681 391 2138 391 
Q 2594 391 2855 752 
Q 3116 1113 3116 1747 
z
M 1159 2969 
Q 1341 3281 1617 3432 
Q 1894 3584 2278 3584 
Q 2916 3584 3314 3078 
Q 3713 2572 3713 1747 
Q 3713 922 3314 415 
Q 2916 -91 2278 -91 
Q 1894 -91 1617 61 
Q 1341 213 1159 525 
L 1159 0 
L 581 0 
L 581 4863 
L 1159 4863 
L 1159 2969 
z
" transform="scale(0.015625)"/>
        <path id="DejaVuSans-75" d="M 544 1381 
L 544 3500 
L 1119 3500 
L 1119 1403 
Q 1119 906 1312 657 
Q 1506 409 1894 409 
Q 2359 409 2629 706 
Q 2900 1003 2900 1516 
L 2900 3500 
L 3475 3500 
L 3475 0 
L 2900 0 
L 2900 538 
Q 2691 219 2414 64 
Q 2138 -91 1772 -91 
Q 1169 -91 856 284 
Q 544 659 544 1381 
z
M 1991 3584 
L 1991 3584 
z
" transform="scale(0.015625)"/>
       </defs>
       <use xlink:href="#DejaVuSans-64"/>
       <use xlink:href="#DejaVuSans-69" x="63.476562"/>
       <use xlink:href="#DejaVuSans-73" x="91.259766"/>
       <use xlink:href="#DejaVuSans-74" x="143.359375"/>
       <use xlink:href="#DejaVuSans-72" x="182.568359"/>
       <use xlink:href="#DejaVuSans-69" x="223.681641"/>
       <use xlink:href="#DejaVuSans-62" x="251.464844"/>
       <use xlink:href="#DejaVuSans-75" x="314.941406"/>
       <use xlink:href="#DejaVuSans-74" x="378.320312"/>
       <use xlink:href="#DejaVuSans-69" x="417.529297"/>
       <use xlink:href="#DejaVuSans-6f" x="445.3125"/>
       <use xlink:href="#DejaVuSans-6e" x="506.494141"/>
      </g>
     </g>
    </g>
    <g id="xtick_2">
     <g id="text_2">
      <!-- Length -->
      <g style="fill: #262626" transform="translate(213.843265 511.32525) scale(0.176 -0.176)">
       <defs>
        <path id="DejaVuSans-4c" d="M 628 4666 
L 1259 4666 
L 1259 531 
L 3531 531 
L 3531 0 
L 628 0 
L 628 4666 
z
" transform="scale(0.015625)"/>
        <path id="DejaVuSans-68" d="M 3513 2113 
L 3513 0 
L 2938 0 
L 2938 2094 
Q 2938 2591 2744 2837 
Q 2550 3084 2163 3084 
Q 1697 3084 1428 2787 
Q 1159 2491 1159 1978 
L 1159 0 
L 581 0 
L 581 4863 
L 1159 4863 
L 1159 2956 
Q 1366 3272 1645 3428 
Q 1925 3584 2291 3584 
Q 2894 3584 3203 3211 
Q 3513 2838 3513 2113 
z
" transform="scale(0.015625)"/>
       </defs>
       <use xlink:href="#DejaVuSans-4c"/>
       <use xlink:href="#DejaVuSans-65" x="53.962891"/>
       <use xlink:href="#DejaVuSans-6e" x="115.486328"/>
       <use xlink:href="#DejaVuSans-67" x="178.865234"/>
       <use xlink:href="#DejaVuSans-74" x="242.341797"/>
       <use xlink:href="#DejaVuSans-68" x="281.550781"/>
      </g>
      <!-- generalization -->
      <g style="fill: #262626" transform="translate(181.437265 531.0334) scale(0.176 -0.176)">
       <defs>
        <path id="DejaVuSans-6c" d="M 603 4863 
L 1178 4863 
L 1178 0 
L 603 0 
L 603 4863 
z
" transform="scale(0.015625)"/>
        <path id="DejaVuSans-7a" d="M 353 3500 
L 3084 3500 
L 3084 2975 
L 922 459 
L 3084 459 
L 3084 0 
L 275 0 
L 275 525 
L 2438 3041 
L 353 3041 
L 353 3500 
z
" transform="scale(0.015625)"/>
       </defs>
       <use xlink:href="#DejaVuSans-67"/>
       <use xlink:href="#DejaVuSans-65" x="63.476562"/>
       <use xlink:href="#DejaVuSans-6e" x="125"/>
       <use xlink:href="#DejaVuSans-65" x="188.378906"/>
       <use xlink:href="#DejaVuSans-72" x="249.902344"/>
       <use xlink:href="#DejaVuSans-61" x="291.015625"/>
       <use xlink:href="#DejaVuSans-6c" x="352.294922"/>
       <use xlink:href="#DejaVuSans-69" x="380.078125"/>
       <use xlink:href="#DejaVuSans-7a" x="407.861328"/>
       <use xlink:href="#DejaVuSans-61" x="460.351562"/>
       <use xlink:href="#DejaVuSans-74" x="521.630859"/>
       <use xlink:href="#DejaVuSans-69" x="560.839844"/>
       <use xlink:href="#DejaVuSans-6f" x="588.623047"/>
       <use xlink:href="#DejaVuSans-6e" x="649.804688"/>
      </g>
     </g>
    </g>
    <g id="xtick_3">
     <g id="text_3">
      <!-- Compose -->
      <g style="fill: #262626" transform="translate(309.101026 511.32525) scale(0.176 -0.176)">
       <defs>
        <path id="DejaVuSans-43" d="M 4122 4306 
L 4122 3641 
Q 3803 3938 3442 4084 
Q 3081 4231 2675 4231 
Q 1875 4231 1450 3742 
Q 1025 3253 1025 2328 
Q 1025 1406 1450 917 
Q 1875 428 2675 428 
Q 3081 428 3442 575 
Q 3803 722 4122 1019 
L 4122 359 
Q 3791 134 3420 21 
Q 3050 -91 2638 -91 
Q 1578 -91 968 557 
Q 359 1206 359 2328 
Q 359 3453 968 4101 
Q 1578 4750 2638 4750 
Q 3056 4750 3426 4639 
Q 3797 4528 4122 4306 
z
" transform="scale(0.015625)"/>
        <path id="DejaVuSans-6d" d="M 3328 2828 
Q 3544 3216 3844 3400 
Q 4144 3584 4550 3584 
Q 5097 3584 5394 3201 
Q 5691 2819 5691 2113 
L 5691 0 
L 5113 0 
L 5113 2094 
Q 5113 2597 4934 2840 
Q 4756 3084 4391 3084 
Q 3944 3084 3684 2787 
Q 3425 2491 3425 1978 
L 3425 0 
L 2847 0 
L 2847 2094 
Q 2847 2600 2669 2842 
Q 2491 3084 2119 3084 
Q 1678 3084 1418 2786 
Q 1159 2488 1159 1978 
L 1159 0 
L 581 0 
L 581 3500 
L 1159 3500 
L 1159 2956 
Q 1356 3278 1631 3431 
Q 1906 3584 2284 3584 
Q 2666 3584 2933 3390 
Q 3200 3197 3328 2828 
z
" transform="scale(0.015625)"/>
        <path id="DejaVuSans-70" d="M 1159 525 
L 1159 -1331 
L 581 -1331 
L 581 3500 
L 1159 3500 
L 1159 2969 
Q 1341 3281 1617 3432 
Q 1894 3584 2278 3584 
Q 2916 3584 3314 3078 
Q 3713 2572 3713 1747 
Q 3713 922 3314 415 
Q 2916 -91 2278 -91 
Q 1894 -91 1617 61 
Q 1341 213 1159 525 
z
M 3116 1747 
Q 3116 2381 2855 2742 
Q 2594 3103 2138 3103 
Q 1681 3103 1420 2742 
Q 1159 2381 1159 1747 
Q 1159 1113 1420 752 
Q 1681 391 2138 391 
Q 2594 391 2855 752 
Q 3116 1113 3116 1747 
z
" transform="scale(0.015625)"/>
       </defs>
       <use xlink:href="#DejaVuSans-43"/>
       <use xlink:href="#DejaVuSans-6f" x="69.824219"/>
       <use xlink:href="#DejaVuSans-6d" x="131.005859"/>
       <use xlink:href="#DejaVuSans-70" x="228.417969"/>
       <use xlink:href="#DejaVuSans-6f" x="291.894531"/>
       <use xlink:href="#DejaVuSans-73" x="353.076172"/>
       <use xlink:href="#DejaVuSans-65" x="405.175781"/>
      </g>
      <!-- different -->
      <g style="fill: #262626" transform="translate(312.669151 531.0334) scale(0.176 -0.176)">
       <defs>
        <path id="DejaVuSans-66" d="M 2375 4863 
L 2375 4384 
L 1825 4384 
Q 1516 4384 1395 4259 
Q 1275 4134 1275 3809 
L 1275 3500 
L 2222 3500 
L 2222 3053 
L 1275 3053 
L 1275 0 
L 697 0 
L 697 3053 
L 147 3053 
L 147 3500 
L 697 3500 
L 697 3744 
Q 697 4328 969 4595 
Q 1241 4863 1831 4863 
L 2375 4863 
z
" transform="scale(0.015625)"/>
       </defs>
       <use xlink:href="#DejaVuSans-64"/>
       <use xlink:href="#DejaVuSans-69" x="63.476562"/>
       <use xlink:href="#DejaVuSans-66" x="91.259766"/>
       <use xlink:href="#DejaVuSans-66" x="126.464844"/>
       <use xlink:href="#DejaVuSans-65" x="161.669922"/>
       <use xlink:href="#DejaVuSans-72" x="223.193359"/>
       <use xlink:href="#DejaVuSans-65" x="262.056641"/>
       <use xlink:href="#DejaVuSans-6e" x="323.580078"/>
       <use xlink:href="#DejaVuSans-74" x="386.958984"/>
      </g>
      <!-- concepts -->
      <g style="fill: #262626" transform="translate(310.498026 550.74155) scale(0.176 -0.176)">
       <defs>
        <path id="DejaVuSans-63" d="M 3122 3366 
L 3122 2828 
Q 2878 2963 2633 3030 
Q 2388 3097 2138 3097 
Q 1578 3097 1268 2742 
Q 959 2388 959 1747 
Q 959 1106 1268 751 
Q 1578 397 2138 397 
Q 2388 397 2633 464 
Q 2878 531 3122 666 
L 3122 134 
Q 2881 22 2623 -34 
Q 2366 -91 2075 -91 
Q 1284 -91 818 406 
Q 353 903 353 1747 
Q 353 2603 823 3093 
Q 1294 3584 2113 3584 
Q 2378 3584 2631 3529 
Q 2884 3475 3122 3366 
z
" transform="scale(0.015625)"/>
       </defs>
       <use xlink:href="#DejaVuSans-63"/>
       <use xlink:href="#DejaVuSans-6f" x="54.980469"/>
       <use xlink:href="#DejaVuSans-6e" x="116.162109"/>
       <use xlink:href="#DejaVuSans-63" x="179.541016"/>
       <use xlink:href="#DejaVuSans-65" x="234.521484"/>
       <use xlink:href="#DejaVuSans-70" x="296.044922"/>
       <use xlink:href="#DejaVuSans-74" x="359.521484"/>
       <use xlink:href="#DejaVuSans-73" x="398.730469"/>
      </g>
     </g>
    </g>
    <g id="xtick_4">
     <g id="text_4">
      <!-- Switch -->
      <g style="fill: #262626" transform="translate(427.053161 511.32525) scale(0.176 -0.176)">
       <defs>
        <path id="DejaVuSans-53" d="M 3425 4513 
L 3425 3897 
Q 3066 4069 2747 4153 
Q 2428 4238 2131 4238 
Q 1616 4238 1336 4038 
Q 1056 3838 1056 3469 
Q 1056 3159 1242 3001 
Q 1428 2844 1947 2747 
L 2328 2669 
Q 3034 2534 3370 2195 
Q 3706 1856 3706 1288 
Q 3706 609 3251 259 
Q 2797 -91 1919 -91 
Q 1588 -91 1214 -16 
Q 841 59 441 206 
L 441 856 
Q 825 641 1194 531 
Q 1563 422 1919 422 
Q 2459 422 2753 634 
Q 3047 847 3047 1241 
Q 3047 1584 2836 1778 
Q 2625 1972 2144 2069 
L 1759 2144 
Q 1053 2284 737 2584 
Q 422 2884 422 3419 
Q 422 4038 858 4394 
Q 1294 4750 2059 4750 
Q 2388 4750 2728 4690 
Q 3069 4631 3425 4513 
z
" transform="scale(0.015625)"/>
        <path id="DejaVuSans-77" d="M 269 3500 
L 844 3500 
L 1563 769 
L 2278 3500 
L 2956 3500 
L 3675 769 
L 4391 3500 
L 4966 3500 
L 4050 0 
L 3372 0 
L 2619 2869 
L 1863 0 
L 1184 0 
L 269 3500 
z
" transform="scale(0.015625)"/>
       </defs>
       <use xlink:href="#DejaVuSans-53"/>
       <use xlink:href="#DejaVuSans-77" x="63.476562"/>
       <use xlink:href="#DejaVuSans-69" x="145.263672"/>
       <use xlink:href="#DejaVuSans-74" x="173.046875"/>
       <use xlink:href="#DejaVuSans-63" x="212.255859"/>
       <use xlink:href="#DejaVuSans-68" x="267.236328"/>
      </g>
      <!-- concept -->
      <g style="fill: #262626" transform="translate(421.056786 531.0334) scale(0.176 -0.176)">
       <use xlink:href="#DejaVuSans-63"/>
       <use xlink:href="#DejaVuSans-6f" x="54.980469"/>
       <use xlink:href="#DejaVuSans-6e" x="116.162109"/>
       <use xlink:href="#DejaVuSans-63" x="179.541016"/>
       <use xlink:href="#DejaVuSans-65" x="234.521484"/>
       <use xlink:href="#DejaVuSans-70" x="296.044922"/>
       <use xlink:href="#DejaVuSans-74" x="359.521484"/>
      </g>
      <!-- order -->
      <g style="fill: #262626" transform="translate(432.679661 550.74155) scale(0.176 -0.176)">
       <use xlink:href="#DejaVuSans-6f"/>
       <use xlink:href="#DejaVuSans-72" x="61.181641"/>
       <use xlink:href="#DejaVuSans-64" x="100.544922"/>
       <use xlink:href="#DejaVuSans-65" x="164.021484"/>
       <use xlink:href="#DejaVuSans-72" x="225.544922"/>
      </g>
     </g>
    </g>
    <g id="xtick_5">
     <g id="text_5">
      <!-- Compose -->
      <g style="fill: #262626" transform="translate(521.050046 511.32525) scale(0.176 -0.176)">
       <use xlink:href="#DejaVuSans-43"/>
       <use xlink:href="#DejaVuSans-6f" x="69.824219"/>
       <use xlink:href="#DejaVuSans-6d" x="131.005859"/>
       <use xlink:href="#DejaVuSans-70" x="228.417969"/>
       <use xlink:href="#DejaVuSans-6f" x="291.894531"/>
       <use xlink:href="#DejaVuSans-73" x="353.076172"/>
       <use xlink:href="#DejaVuSans-65" x="405.175781"/>
      </g>
      <!-- new -->
      <g style="fill: #262626" transform="translate(543.932796 531.0334) scale(0.176 -0.176)">
       <use xlink:href="#DejaVuSans-6e"/>
       <use xlink:href="#DejaVuSans-65" x="63.378906"/>
       <use xlink:href="#DejaVuSans-77" x="124.902344"/>
      </g>
      <!-- operation -->
      <g style="fill: #262626" transform="translate(519.868921 550.74155) scale(0.176 -0.176)">
       <use xlink:href="#DejaVuSans-6f"/>
       <use xlink:href="#DejaVuSans-70" x="61.181641"/>
       <use xlink:href="#DejaVuSans-65" x="124.658203"/>
       <use xlink:href="#DejaVuSans-72" x="186.181641"/>
       <use xlink:href="#DejaVuSans-61" x="227.294922"/>
       <use xlink:href="#DejaVuSans-74" x="288.574219"/>
       <use xlink:href="#DejaVuSans-69" x="327.783203"/>
       <use xlink:href="#DejaVuSans-6f" x="355.566406"/>
       <use xlink:href="#DejaVuSans-6e" x="416.748047"/>
      </g>
     </g>
    </g>
    <g id="xtick_6">
     <g id="text_6">
      <!-- Add -->
      <g style="fill: #262626" transform="translate(651.056806 511.32525) scale(0.176 -0.176)">
       <defs>
        <path id="DejaVuSans-41" d="M 2188 4044 
L 1331 1722 
L 3047 1722 
L 2188 4044 
z
M 1831 4666 
L 2547 4666 
L 4325 0 
L 3669 0 
L 3244 1197 
L 1141 1197 
L 716 0 
L 50 0 
L 1831 4666 
z
" transform="scale(0.015625)"/>
       </defs>
       <use xlink:href="#DejaVuSans-41"/>
       <use xlink:href="#DejaVuSans-64" x="66.658203"/>
       <use xlink:href="#DejaVuSans-64" x="130.134766"/>
      </g>
      <!-- operation -->
      <g style="fill: #262626" transform="translate(625.843431 531.0334) scale(0.176 -0.176)">
       <use xlink:href="#DejaVuSans-6f"/>
       <use xlink:href="#DejaVuSans-70" x="61.181641"/>
       <use xlink:href="#DejaVuSans-65" x="124.658203"/>
       <use xlink:href="#DejaVuSans-72" x="186.181641"/>
       <use xlink:href="#DejaVuSans-61" x="227.294922"/>
       <use xlink:href="#DejaVuSans-74" x="288.574219"/>
       <use xlink:href="#DejaVuSans-69" x="327.783203"/>
       <use xlink:href="#DejaVuSans-6f" x="355.566406"/>
       <use xlink:href="#DejaVuSans-6e" x="416.748047"/>
      </g>
      <!-- functionality -->
      <g style="fill: #262626" transform="translate(613.208556 550.74155) scale(0.176 -0.176)">
       <defs>
        <path id="DejaVuSans-79" d="M 2059 -325 
Q 1816 -950 1584 -1140 
Q 1353 -1331 966 -1331 
L 506 -1331 
L 506 -850 
L 844 -850 
Q 1081 -850 1212 -737 
Q 1344 -625 1503 -206 
L 1606 56 
L 191 3500 
L 800 3500 
L 1894 763 
L 2988 3500 
L 3597 3500 
L 2059 -325 
z
" transform="scale(0.015625)"/>
       </defs>
       <use xlink:href="#DejaVuSans-66"/>
       <use xlink:href="#DejaVuSans-75" x="35.205078"/>
       <use xlink:href="#DejaVuSans-6e" x="98.583984"/>
       <use xlink:href="#DejaVuSans-63" x="161.962891"/>
       <use xlink:href="#DejaVuSans-74" x="216.943359"/>
       <use xlink:href="#DejaVuSans-69" x="256.152344"/>
       <use xlink:href="#DejaVuSans-6f" x="283.935547"/>
       <use xlink:href="#DejaVuSans-6e" x="345.117188"/>
       <use xlink:href="#DejaVuSans-61" x="408.496094"/>
       <use xlink:href="#DejaVuSans-6c" x="469.775391"/>
       <use xlink:href="#DejaVuSans-69" x="497.558594"/>
       <use xlink:href="#DejaVuSans-74" x="525.341797"/>
       <use xlink:href="#DejaVuSans-79" x="564.550781"/>
      </g>
     </g>
    </g>
    <g id="xtick_7">
     <g id="text_7">
      <!-- Generalization -->
      <g style="fill: #262626" transform="translate(710.077816 511.32525) scale(0.176 -0.176)">
       <defs>
        <path id="DejaVuSans-47" d="M 3809 666 
L 3809 1919 
L 2778 1919 
L 2778 2438 
L 4434 2438 
L 4434 434 
Q 4069 175 3628 42 
Q 3188 -91 2688 -91 
Q 1594 -91 976 548 
Q 359 1188 359 2328 
Q 359 3472 976 4111 
Q 1594 4750 2688 4750 
Q 3144 4750 3555 4637 
Q 3966 4525 4313 4306 
L 4313 3634 
Q 3963 3931 3569 4081 
Q 3175 4231 2741 4231 
Q 1884 4231 1454 3753 
Q 1025 3275 1025 2328 
Q 1025 1384 1454 906 
Q 1884 428 2741 428 
Q 3075 428 3337 486 
Q 3600 544 3809 666 
z
" transform="scale(0.015625)"/>
       </defs>
       <use xlink:href="#DejaVuSans-47"/>
       <use xlink:href="#DejaVuSans-65" x="77.490234"/>
       <use xlink:href="#DejaVuSans-6e" x="139.013672"/>
       <use xlink:href="#DejaVuSans-65" x="202.392578"/>
       <use xlink:href="#DejaVuSans-72" x="263.916016"/>
       <use xlink:href="#DejaVuSans-61" x="305.029297"/>
       <use xlink:href="#DejaVuSans-6c" x="366.308594"/>
       <use xlink:href="#DejaVuSans-69" x="394.091797"/>
       <use xlink:href="#DejaVuSans-7a" x="421.875"/>
       <use xlink:href="#DejaVuSans-61" x="474.365234"/>
       <use xlink:href="#DejaVuSans-74" x="535.644531"/>
       <use xlink:href="#DejaVuSans-69" x="574.853516"/>
       <use xlink:href="#DejaVuSans-6f" x="602.636719"/>
       <use xlink:href="#DejaVuSans-6e" x="663.818359"/>
      </g>
      <!-- average -->
      <g style="fill: #262626" transform="translate(738.042566 531.0334) scale(0.176 -0.176)">
       <defs>
        <path id="DejaVuSans-76" d="M 191 3500 
L 800 3500 
L 1894 563 
L 2988 3500 
L 3597 3500 
L 2284 0 
L 1503 0 
L 191 3500 
z
" transform="scale(0.015625)"/>
       </defs>
       <use xlink:href="#DejaVuSans-61"/>
       <use xlink:href="#DejaVuSans-76" x="61.279297"/>
       <use xlink:href="#DejaVuSans-65" x="120.458984"/>
       <use xlink:href="#DejaVuSans-72" x="181.982422"/>
       <use xlink:href="#DejaVuSans-61" x="223.095703"/>
       <use xlink:href="#DejaVuSans-67" x="284.375"/>
       <use xlink:href="#DejaVuSans-65" x="347.851562"/>
      </g>
     </g>
    </g>
   </g>
   <g id="matplotlib.axis_2">
    <g id="ytick_1">
     <g id="line2d_1">
      <path d="M 85.236 489.652 
L 827.057571 489.652 
" clip-path="url(#pf50d49877b)" style="fill: none; stroke: #cccccc; stroke-width: 0.8; stroke-linecap: round"/>
     </g>
     <g id="text_8">
      <!-- 0 -->
      <g style="fill: #262626" transform="translate(65.738 496.338625) scale(0.176 -0.176)">
       <defs>
        <path id="DejaVuSans-30" d="M 2034 4250 
Q 1547 4250 1301 3770 
Q 1056 3291 1056 2328 
Q 1056 1369 1301 889 
Q 1547 409 2034 409 
Q 2525 409 2770 889 
Q 3016 1369 3016 2328 
Q 3016 3291 2770 3770 
Q 2525 4250 2034 4250 
z
M 2034 4750 
Q 2819 4750 3233 4129 
Q 3647 3509 3647 2328 
Q 3647 1150 3233 529 
Q 2819 -91 2034 -91 
Q 1250 -91 836 529 
Q 422 1150 422 2328 
Q 422 3509 836 4129 
Q 1250 4750 2034 4750 
z
" transform="scale(0.015625)"/>
       </defs>
       <use xlink:href="#DejaVuSans-30"/>
      </g>
     </g>
    </g>
    <g id="ytick_2">
     <g id="line2d_2">
      <path d="M 85.236 400.83695 
L 827.057571 400.83695 
" clip-path="url(#pf50d49877b)" style="fill: none; stroke: #cccccc; stroke-width: 0.8; stroke-linecap: round"/>
     </g>
     <g id="text_9">
      <!-- 20 -->
      <g style="fill: #262626" transform="translate(54.54 407.523575) scale(0.176 -0.176)">
       <defs>
        <path id="DejaVuSans-32" d="M 1228 531 
L 3431 531 
L 3431 0 
L 469 0 
L 469 531 
Q 828 903 1448 1529 
Q 2069 2156 2228 2338 
Q 2531 2678 2651 2914 
Q 2772 3150 2772 3378 
Q 2772 3750 2511 3984 
Q 2250 4219 1831 4219 
Q 1534 4219 1204 4116 
Q 875 4013 500 3803 
L 500 4441 
Q 881 4594 1212 4672 
Q 1544 4750 1819 4750 
Q 2544 4750 2975 4387 
Q 3406 4025 3406 3419 
Q 3406 3131 3298 2873 
Q 3191 2616 2906 2266 
Q 2828 2175 2409 1742 
Q 1991 1309 1228 531 
z
" transform="scale(0.015625)"/>
       </defs>
       <use xlink:href="#DejaVuSans-32"/>
       <use xlink:href="#DejaVuSans-30" x="63.623047"/>
      </g>
     </g>
    </g>
    <g id="ytick_3">
     <g id="line2d_3">
      <path d="M 85.236 312.021901 
L 827.057571 312.021901 
" clip-path="url(#pf50d49877b)" style="fill: none; stroke: #cccccc; stroke-width: 0.8; stroke-linecap: round"/>
     </g>
     <g id="text_10">
      <!-- 40 -->
      <g style="fill: #262626" transform="translate(54.54 318.708526) scale(0.176 -0.176)">
       <defs>
        <path id="DejaVuSans-34" d="M 2419 4116 
L 825 1625 
L 2419 1625 
L 2419 4116 
z
M 2253 4666 
L 3047 4666 
L 3047 1625 
L 3713 1625 
L 3713 1100 
L 3047 1100 
L 3047 0 
L 2419 0 
L 2419 1100 
L 313 1100 
L 313 1709 
L 2253 4666 
z
" transform="scale(0.015625)"/>
       </defs>
       <use xlink:href="#DejaVuSans-34"/>
       <use xlink:href="#DejaVuSans-30" x="63.623047"/>
      </g>
     </g>
    </g>
    <g id="ytick_4">
     <g id="line2d_4">
      <path d="M 85.236 223.206851 
L 827.057571 223.206851 
" clip-path="url(#pf50d49877b)" style="fill: none; stroke: #cccccc; stroke-width: 0.8; stroke-linecap: round"/>
     </g>
     <g id="text_11">
      <!-- 60 -->
      <g style="fill: #262626" transform="translate(54.54 229.893476) scale(0.176 -0.176)">
       <defs>
        <path id="DejaVuSans-36" d="M 2113 2584 
Q 1688 2584 1439 2293 
Q 1191 2003 1191 1497 
Q 1191 994 1439 701 
Q 1688 409 2113 409 
Q 2538 409 2786 701 
Q 3034 994 3034 1497 
Q 3034 2003 2786 2293 
Q 2538 2584 2113 2584 
z
M 3366 4563 
L 3366 3988 
Q 3128 4100 2886 4159 
Q 2644 4219 2406 4219 
Q 1781 4219 1451 3797 
Q 1122 3375 1075 2522 
Q 1259 2794 1537 2939 
Q 1816 3084 2150 3084 
Q 2853 3084 3261 2657 
Q 3669 2231 3669 1497 
Q 3669 778 3244 343 
Q 2819 -91 2113 -91 
Q 1303 -91 875 529 
Q 447 1150 447 2328 
Q 447 3434 972 4092 
Q 1497 4750 2381 4750 
Q 2619 4750 2861 4703 
Q 3103 4656 3366 4563 
z
" transform="scale(0.015625)"/>
       </defs>
       <use xlink:href="#DejaVuSans-36"/>
       <use xlink:href="#DejaVuSans-30" x="63.623047"/>
      </g>
     </g>
    </g>
    <g id="ytick_5">
     <g id="line2d_5">
      <path d="M 85.236 134.391802 
L 827.057571 134.391802 
" clip-path="url(#pf50d49877b)" style="fill: none; stroke: #cccccc; stroke-width: 0.8; stroke-linecap: round"/>
     </g>
     <g id="text_12">
      <!-- 80 -->
      <g style="fill: #262626" transform="translate(54.54 141.078427) scale(0.176 -0.176)">
       <defs>
        <path id="DejaVuSans-38" d="M 2034 2216 
Q 1584 2216 1326 1975 
Q 1069 1734 1069 1313 
Q 1069 891 1326 650 
Q 1584 409 2034 409 
Q 2484 409 2743 651 
Q 3003 894 3003 1313 
Q 3003 1734 2745 1975 
Q 2488 2216 2034 2216 
z
M 1403 2484 
Q 997 2584 770 2862 
Q 544 3141 544 3541 
Q 544 4100 942 4425 
Q 1341 4750 2034 4750 
Q 2731 4750 3128 4425 
Q 3525 4100 3525 3541 
Q 3525 3141 3298 2862 
Q 3072 2584 2669 2484 
Q 3125 2378 3379 2068 
Q 3634 1759 3634 1313 
Q 3634 634 3220 271 
Q 2806 -91 2034 -91 
Q 1263 -91 848 271 
Q 434 634 434 1313 
Q 434 1759 690 2068 
Q 947 2378 1403 2484 
z
M 1172 3481 
Q 1172 3119 1398 2916 
Q 1625 2713 2034 2713 
Q 2441 2713 2670 2916 
Q 2900 3119 2900 3481 
Q 2900 3844 2670 4047 
Q 2441 4250 2034 4250 
Q 1625 4250 1398 4047 
Q 1172 3844 1172 3481 
z
" transform="scale(0.015625)"/>
       </defs>
       <use xlink:href="#DejaVuSans-38"/>
       <use xlink:href="#DejaVuSans-30" x="63.623047"/>
      </g>
     </g>
    </g>
    <g id="ytick_6">
     <g id="line2d_6">
      <path d="M 85.236 45.576752 
L 827.057571 45.576752 
" clip-path="url(#pf50d49877b)" style="fill: none; stroke: #cccccc; stroke-width: 0.8; stroke-linecap: round"/>
     </g>
     <g id="text_13">
      <!-- 100 -->
      <g style="fill: #262626" transform="translate(43.342 52.263377) scale(0.176 -0.176)">
       <defs>
        <path id="DejaVuSans-31" d="M 794 531 
L 1825 531 
L 1825 4091 
L 703 3866 
L 703 4441 
L 1819 4666 
L 2450 4666 
L 2450 531 
L 3481 531 
L 3481 0 
L 794 0 
L 794 531 
z
" transform="scale(0.015625)"/>
       </defs>
       <use xlink:href="#DejaVuSans-31"/>
       <use xlink:href="#DejaVuSans-30" x="63.623047"/>
       <use xlink:href="#DejaVuSans-30" x="127.246094"/>
      </g>
     </g>
    </g>
    <g id="text_14">
     <!-- End-to-end test accuracy [%] -->
     <g style="fill: #262626" transform="translate(35.349 405.983) rotate(-90) scale(0.192 -0.192)">
      <defs>
       <path id="DejaVuSans-45" d="M 628 4666 
L 3578 4666 
L 3578 4134 
L 1259 4134 
L 1259 2753 
L 3481 2753 
L 3481 2222 
L 1259 2222 
L 1259 531 
L 3634 531 
L 3634 0 
L 628 0 
L 628 4666 
z
" transform="scale(0.015625)"/>
       <path id="DejaVuSans-2d" d="M 313 2009 
L 1997 2009 
L 1997 1497 
L 313 1497 
L 313 2009 
z
" transform="scale(0.015625)"/>
       <path id="DejaVuSans-5b" d="M 550 4863 
L 1875 4863 
L 1875 4416 
L 1125 4416 
L 1125 -397 
L 1875 -397 
L 1875 -844 
L 550 -844 
L 550 4863 
z
" transform="scale(0.015625)"/>
       <path id="DejaVuSans-25" d="M 4653 2053 
Q 4381 2053 4226 1822 
Q 4072 1591 4072 1178 
Q 4072 772 4226 539 
Q 4381 306 4653 306 
Q 4919 306 5073 539 
Q 5228 772 5228 1178 
Q 5228 1588 5073 1820 
Q 4919 2053 4653 2053 
z
M 4653 2450 
Q 5147 2450 5437 2106 
Q 5728 1763 5728 1178 
Q 5728 594 5436 251 
Q 5144 -91 4653 -91 
Q 4153 -91 3862 251 
Q 3572 594 3572 1178 
Q 3572 1766 3864 2108 
Q 4156 2450 4653 2450 
z
M 1428 4353 
Q 1159 4353 1004 4120 
Q 850 3888 850 3481 
Q 850 3069 1003 2837 
Q 1156 2606 1428 2606 
Q 1700 2606 1854 2837 
Q 2009 3069 2009 3481 
Q 2009 3884 1853 4118 
Q 1697 4353 1428 4353 
z
M 4250 4750 
L 4750 4750 
L 1831 -91 
L 1331 -91 
L 4250 4750 
z
M 1428 4750 
Q 1922 4750 2215 4408 
Q 2509 4066 2509 3481 
Q 2509 2891 2217 2550 
Q 1925 2209 1428 2209 
Q 931 2209 642 2551 
Q 353 2894 353 3481 
Q 353 4063 643 4406 
Q 934 4750 1428 4750 
z
" transform="scale(0.015625)"/>
       <path id="DejaVuSans-5d" d="M 1947 4863 
L 1947 -844 
L 622 -844 
L 622 -397 
L 1369 -397 
L 1369 4416 
L 622 4416 
L 622 4863 
L 1947 4863 
z
" transform="scale(0.015625)"/>
      </defs>
      <use xlink:href="#DejaVuSans-45"/>
      <use xlink:href="#DejaVuSans-6e" x="63.183594"/>
      <use xlink:href="#DejaVuSans-64" x="126.5625"/>
      <use xlink:href="#DejaVuSans-2d" x="190.039062"/>
      <use xlink:href="#DejaVuSans-74" x="226.123047"/>
      <use xlink:href="#DejaVuSans-6f" x="265.332031"/>
      <use xlink:href="#DejaVuSans-2d" x="328.388672"/>
      <use xlink:href="#DejaVuSans-65" x="364.472656"/>
      <use xlink:href="#DejaVuSans-6e" x="425.996094"/>
      <use xlink:href="#DejaVuSans-64" x="489.375"/>
      <use xlink:href="#DejaVuSans-20" x="552.851562"/>
      <use xlink:href="#DejaVuSans-74" x="584.638672"/>
      <use xlink:href="#DejaVuSans-65" x="623.847656"/>
      <use xlink:href="#DejaVuSans-73" x="685.371094"/>
      <use xlink:href="#DejaVuSans-74" x="737.470703"/>
      <use xlink:href="#DejaVuSans-20" x="776.679688"/>
      <use xlink:href="#DejaVuSans-61" x="808.466797"/>
      <use xlink:href="#DejaVuSans-63" x="869.746094"/>
      <use xlink:href="#DejaVuSans-63" x="924.726562"/>
      <use xlink:href="#DejaVuSans-75" x="979.707031"/>
      <use xlink:href="#DejaVuSans-72" x="1043.085938"/>
      <use xlink:href="#DejaVuSans-61" x="1084.199219"/>
      <use xlink:href="#DejaVuSans-63" x="1145.478516"/>
      <use xlink:href="#DejaVuSans-79" x="1200.458984"/>
      <use xlink:href="#DejaVuSans-20" x="1259.638672"/>
      <use xlink:href="#DejaVuSans-5b" x="1291.425781"/>
      <use xlink:href="#DejaVuSans-25" x="1330.439453"/>
      <use xlink:href="#DejaVuSans-5d" x="1425.458984"/>
     </g>
    </g>
   </g>
   <g id="patch_3">
    <path d="M 95.833451 489.652 
L 124.09332 489.652 
L 124.09332 326.409939 
L 95.833451 326.409939 
z
" clip-path="url(#pf50d49877b)" style="fill: #115a7b; stroke: #ffffff; stroke-width: 0.8; stroke-linejoin: miter"/>
   </g>
   <g id="patch_4">
    <path d="M 201.807961 489.652 
L 230.067831 489.652 
L 230.067831 487.342809 
L 201.807961 487.342809 
z
" clip-path="url(#pf50d49877b)" style="fill: #115a7b; stroke: #ffffff; stroke-width: 0.8; stroke-linejoin: miter"/>
   </g>
   <g id="patch_5">
    <path d="M 307.782471 489.652 
L 336.042341 489.652 
L 336.042341 388.047583 
L 307.782471 388.047583 
z
" clip-path="url(#pf50d49877b)" style="fill: #115a7b; stroke: #ffffff; stroke-width: 0.8; stroke-linejoin: miter"/>
   </g>
   <g id="patch_6">
    <path d="M 413.756982 489.652 
L 442.016851 489.652 
L 442.016851 398.705389 
L 413.756982 398.705389 
z
" clip-path="url(#pf50d49877b)" style="fill: #115a7b; stroke: #ffffff; stroke-width: 0.8; stroke-linejoin: miter"/>
   </g>
   <g id="patch_7">
    <path d="M 519.731492 489.652 
L 547.991361 489.652 
L 547.991361 372.771395 
L 519.731492 372.771395 
z
" clip-path="url(#pf50d49877b)" style="fill: #115a7b; stroke: #ffffff; stroke-width: 0.8; stroke-linejoin: miter"/>
   </g>
   <g id="patch_8">
    <path d="M 625.706002 489.652 
L 653.965871 489.652 
L 653.965871 426.238055 
L 625.706002 426.238055 
z
" clip-path="url(#pf50d49877b)" style="fill: #115a7b; stroke: #ffffff; stroke-width: 0.8; stroke-linejoin: miter"/>
   </g>
   <g id="patch_9">
    <path d="M 731.680512 489.652 
L 759.940382 489.652 
L 759.940382 414.621046 
L 731.680512 414.621046 
z
" clip-path="url(#pf50d49877b)" style="fill: #115a7b; stroke: #ffffff; stroke-width: 0.8; stroke-linejoin: miter"/>
   </g>
   <g id="patch_10">
    <path d="M 124.09332 489.652 
L 152.35319 489.652 
L 152.35319 217.167428 
L 124.09332 217.167428 
z
" clip-path="url(#pf50d49877b)" style="fill: #a3ada1; stroke: #ffffff; stroke-width: 0.8; stroke-linejoin: miter"/>
   </g>
   <g id="patch_11">
    <path d="M 230.067831 489.652 
L 258.3277 489.652 
L 258.3277 424.017678 
L 230.067831 424.017678 
z
" clip-path="url(#pf50d49877b)" style="fill: #a3ada1; stroke: #ffffff; stroke-width: 0.8; stroke-linejoin: miter"/>
   </g>
   <g id="patch_12">
    <path d="M 336.042341 489.652 
L 364.30221 489.652 
L 364.30221 319.304735 
L 336.042341 319.304735 
z
" clip-path="url(#pf50d49877b)" style="fill: #a3ada1; stroke: #ffffff; stroke-width: 0.8; stroke-linejoin: miter"/>
   </g>
   <g id="patch_13">
    <path d="M 442.016851 489.652 
L 470.27672 489.652 
L 470.27672 388.935734 
L 442.016851 388.935734 
z
" clip-path="url(#pf50d49877b)" style="fill: #a3ada1; stroke: #ffffff; stroke-width: 0.8; stroke-linejoin: miter"/>
   </g>
   <g id="patch_14">
    <path d="M 547.991361 489.652 
L 576.251231 489.652 
L 576.251231 392.133076 
L 547.991361 392.133076 
z
" clip-path="url(#pf50d49877b)" style="fill: #a3ada1; stroke: #ffffff; stroke-width: 0.8; stroke-linejoin: miter"/>
   </g>
   <g id="patch_15">
    <path d="M 653.965871 489.652 
L 682.225741 489.652 
L 682.225741 403.590217 
L 653.965871 403.590217 
z
" clip-path="url(#pf50d49877b)" style="fill: #a3ada1; stroke: #ffffff; stroke-width: 0.8; stroke-linejoin: miter"/>
   </g>
   <g id="patch_16">
    <path d="M 759.940382 489.652 
L 788.200251 489.652 
L 788.200251 385.596288 
L 759.940382 385.596288 
z
" clip-path="url(#pf50d49877b)" style="fill: #a3ada1; stroke: #ffffff; stroke-width: 0.8; stroke-linejoin: miter"/>
   </g>
   <g id="patch_17">
    <path d="M 152.35319 489.652 
L 180.613059 489.652 
L 180.613059 204.200431 
L 152.35319 204.200431 
z
" clip-path="url(#pf50d49877b)" style="fill: #1b541f; stroke: #ffffff; stroke-width: 0.8; stroke-linejoin: miter"/>
   </g>
   <g id="patch_18">
    <path d="M 258.3277 489.652 
L 286.587569 489.652 
L 286.587569 423.307158 
L 258.3277 423.307158 
z
" clip-path="url(#pf50d49877b)" style="fill: #1b541f; stroke: #ffffff; stroke-width: 0.8; stroke-linejoin: miter"/>
   </g>
   <g id="patch_19">
    <path d="M 364.30221 489.652 
L 392.56208 489.652 
L 392.56208 295.857562 
L 364.30221 295.857562 
z
" clip-path="url(#pf50d49877b)" style="fill: #1b541f; stroke: #ffffff; stroke-width: 0.8; stroke-linejoin: miter"/>
   </g>
   <g id="patch_20">
    <path d="M 470.27672 489.652 
L 498.53659 489.652 
L 498.53659 346.30451 
L 470.27672 346.30451 
z
" clip-path="url(#pf50d49877b)" style="fill: #1b541f; stroke: #ffffff; stroke-width: 0.8; stroke-linejoin: miter"/>
   </g>
   <g id="patch_21">
    <path d="M 576.251231 489.652 
L 604.5111 489.652 
L 604.5111 334.847369 
L 576.251231 334.847369 
z
" clip-path="url(#pf50d49877b)" style="fill: #1b541f; stroke: #ffffff; stroke-width: 0.8; stroke-linejoin: miter"/>
   </g>
   <g id="patch_22">
    <path d="M 682.225741 489.652 
L 710.48561 489.652 
L 710.48561 372.771395 
L 682.225741 372.771395 
z
" clip-path="url(#pf50d49877b)" style="fill: #1b541f; stroke: #ffffff; stroke-width: 0.8; stroke-linejoin: miter"/>
   </g>
   <g id="patch_23">
    <path d="M 788.200251 489.652 
L 816.46012 489.652 
L 816.46012 354.617599 
L 788.200251 354.617599 
z
" clip-path="url(#pf50d49877b)" style="fill: #1b541f; stroke: #ffffff; stroke-width: 0.8; stroke-linejoin: miter"/>
   </g>
   <g id="patch_24">
    <path d="M 138.223255 489.652 
L 138.223255 489.652 
L 138.223255 489.652 
L 138.223255 489.652 
z
" clip-path="url(#pf50d49877b)" style="fill: #115a7b; stroke: #ffffff; stroke-width: 0.8; stroke-linejoin: miter"/>
   </g>
   <g id="patch_25">
    <path d="M 138.223255 489.652 
L 138.223255 489.652 
L 138.223255 489.652 
L 138.223255 489.652 
z
" clip-path="url(#pf50d49877b)" style="fill: #a3ada1; stroke: #ffffff; stroke-width: 0.8; stroke-linejoin: miter"/>
   </g>
   <g id="patch_26">
    <path d="M 138.223255 489.652 
L 138.223255 489.652 
L 138.223255 489.652 
L 138.223255 489.652 
z
" clip-path="url(#pf50d49877b)" style="fill: #1b541f; stroke: #ffffff; stroke-width: 0.8; stroke-linejoin: miter"/>
   </g>
   <g id="line2d_7">
    <path d="M 109.963386 336.534855 
L 109.963386 316.551469 
" clip-path="url(#pf50d49877b)" style="fill: none; stroke: #808080; stroke-width: 1.8; stroke-linecap: round"/>
   </g>
   <g id="line2d_8">
    <path d="M 215.937896 488.76385 
L 215.937896 485.033617 
" clip-path="url(#pf50d49877b)" style="fill: none; stroke: #808080; stroke-width: 1.8; stroke-linecap: round"/>
   </g>
   <g id="line2d_9">
    <path d="M 321.912406 395.063972 
L 321.912406 382.096975 
" clip-path="url(#pf50d49877b)" style="fill: none; stroke: #808080; stroke-width: 1.8; stroke-linecap: round"/>
   </g>
   <g id="line2d_10">
    <path d="M 427.886916 405.899408 
L 427.886916 392.843596 
" clip-path="url(#pf50d49877b)" style="fill: none; stroke: #808080; stroke-width: 1.8; stroke-linecap: round"/>
   </g>
   <g id="line2d_11">
    <path d="M 533.861427 385.738392 
L 533.861427 357.584021 
" clip-path="url(#pf50d49877b)" style="fill: none; stroke: #808080; stroke-width: 1.8; stroke-linecap: round"/>
   </g>
   <g id="line2d_12">
    <path d="M 639.835937 433.520889 
L 639.835937 418.333515 
" clip-path="url(#pf50d49877b)" style="fill: none; stroke: #808080; stroke-width: 1.8; stroke-linecap: round"/>
   </g>
   <g id="line2d_13">
    <path clip-path="url(#pf50d49877b)" style="fill: none; stroke: #808080; stroke-width: 1.8; stroke-linecap: round"/>
   </g>
   <g id="line2d_14">
    <path d="M 138.223255 226.404193 
L 138.223255 207.753033 
" clip-path="url(#pf50d49877b)" style="fill: none; stroke: #808080; stroke-width: 1.8; stroke-linecap: round"/>
   </g>
   <g id="line2d_15">
    <path d="M 244.197765 430.592212 
L 244.197765 413.537503 
" clip-path="url(#pf50d49877b)" style="fill: none; stroke: #808080; stroke-width: 1.8; stroke-linecap: round"/>
   </g>
   <g id="line2d_16">
    <path d="M 350.172276 326.498754 
L 350.172276 312.110716 
" clip-path="url(#pf50d49877b)" style="fill: none; stroke: #808080; stroke-width: 1.8; stroke-linecap: round"/>
   </g>
   <g id="line2d_17">
    <path d="M 456.146786 404.744813 
L 456.146786 376.412812 
" clip-path="url(#pf50d49877b)" style="fill: none; stroke: #808080; stroke-width: 1.8; stroke-linecap: round"/>
   </g>
   <g id="line2d_18">
    <path d="M 562.121296 398.705389 
L 562.121296 385.560762 
" clip-path="url(#pf50d49877b)" style="fill: none; stroke: #808080; stroke-width: 1.8; stroke-linecap: round"/>
   </g>
   <g id="line2d_19">
    <path d="M 668.095806 407.942154 
L 668.095806 400.392875 
" clip-path="url(#pf50d49877b)" style="fill: none; stroke: #808080; stroke-width: 1.8; stroke-linecap: round"/>
   </g>
   <g id="line2d_20">
    <path clip-path="url(#pf50d49877b)" style="fill: none; stroke: #808080; stroke-width: 1.8; stroke-linecap: round"/>
   </g>
   <g id="line2d_21">
    <path d="M 166.483124 211.580962 
L 166.483124 197.352791 
" clip-path="url(#pf50d49877b)" style="fill: none; stroke: #808080; stroke-width: 1.8; stroke-linecap: round"/>
   </g>
   <g id="line2d_22">
    <path d="M 272.457635 430.681028 
L 272.457635 411.672387 
" clip-path="url(#pf50d49877b)" style="fill: none; stroke: #808080; stroke-width: 1.8; stroke-linecap: round"/>
   </g>
   <g id="line2d_23">
    <path d="M 378.432145 303.406841 
L 378.432145 288.308283 
" clip-path="url(#pf50d49877b)" style="fill: none; stroke: #808080; stroke-width: 1.8; stroke-linecap: round"/>
   </g>
   <g id="line2d_24">
    <path d="M 484.406655 361.793855 
L 484.406655 335.557889 
" clip-path="url(#pf50d49877b)" style="fill: none; stroke: #808080; stroke-width: 1.8; stroke-linecap: round"/>
   </g>
   <g id="line2d_25">
    <path d="M 590.381165 347.192661 
L 590.381165 323.212597 
" clip-path="url(#pf50d49877b)" style="fill: none; stroke: #808080; stroke-width: 1.8; stroke-linecap: round"/>
   </g>
   <g id="line2d_26">
    <path d="M 696.355676 377.123332 
L 696.355676 367.975382 
" clip-path="url(#pf50d49877b)" style="fill: none; stroke: #808080; stroke-width: 1.8; stroke-linecap: round"/>
   </g>
   <g id="line2d_27">
    <path clip-path="url(#pf50d49877b)" style="fill: none; stroke: #808080; stroke-width: 1.8; stroke-linecap: round"/>
   </g>
   <g id="patch_27">
    <path d="M 85.236 489.652 
L 85.236 41.136 
" style="fill: none; stroke: #cccccc; stroke-linejoin: miter; stroke-linecap: square"/>
   </g>
   <g id="patch_28">
    <path d="M 827.057571 489.652 
L 827.057571 41.136 
" style="fill: none; stroke: #cccccc; stroke-linejoin: miter; stroke-linecap: square"/>
   </g>
   <g id="patch_29">
    <path d="M 85.236 489.652 
L 827.057571 489.652 
" style="fill: none; stroke: #cccccc; stroke-linejoin: miter; stroke-linecap: square"/>
   </g>
   <g id="patch_30">
    <path d="M 85.236 41.136 
L 827.057571 41.136 
" style="fill: none; stroke: #cccccc; stroke-linejoin: miter; stroke-linecap: square"/>
   </g>
   <g id="text_15">
    <!-- 14 -->
    <g transform="translate(630.868377 413.110773) scale(0.12 -0.12)">
     <defs>
      <path id="DejaVuSans-Bold-31" d="M 750 831 
L 1813 831 
L 1813 3847 
L 722 3622 
L 722 4441 
L 1806 4666 
L 2950 4666 
L 2950 831 
L 4013 831 
L 4013 0 
L 750 0 
L 750 831 
z
" transform="scale(0.015625)"/>
      <path id="DejaVuSans-Bold-34" d="M 2356 3675 
L 1038 1722 
L 2356 1722 
L 2356 3675 
z
M 2156 4666 
L 3494 4666 
L 3494 1722 
L 4159 1722 
L 4159 850 
L 3494 850 
L 3494 0 
L 2356 0 
L 2356 850 
L 288 850 
L 288 1881 
L 2156 4666 
z
" transform="scale(0.015625)"/>
     </defs>
     <use xlink:href="#DejaVuSans-Bold-31"/>
     <use xlink:href="#DejaVuSans-Bold-34" x="69.580078"/>
    </g>
   </g>
   <g id="text_16">
    <!-- 19 -->
    <g transform="translate(659.746431 395.705761) scale(0.12 -0.12)">
     <defs>
      <path id="DejaVuSans-Bold-39" d="M 641 103 
L 641 966 
Q 928 831 1190 764 
Q 1453 697 1709 697 
Q 2247 697 2547 995 
Q 2847 1294 2900 1881 
Q 2688 1725 2447 1647 
Q 2206 1569 1925 1569 
Q 1209 1569 770 1986 
Q 331 2403 331 3084 
Q 331 3838 820 4291 
Q 1309 4744 2131 4744 
Q 3044 4744 3544 4128 
Q 4044 3513 4044 2388 
Q 4044 1231 3459 570 
Q 2875 -91 1856 -91 
Q 1528 -91 1228 -42 
Q 928 6 641 103 
z
M 2125 2350 
Q 2441 2350 2600 2554 
Q 2759 2759 2759 3169 
Q 2759 3575 2600 3781 
Q 2441 3988 2125 3988 
Q 1809 3988 1650 3781 
Q 1491 3575 1491 3169 
Q 1491 2759 1650 2554 
Q 1809 2350 2125 2350 
z
" transform="scale(0.015625)"/>
     </defs>
     <use xlink:href="#DejaVuSans-Bold-31"/>
     <use xlink:href="#DejaVuSans-Bold-39" x="69.580078"/>
    </g>
   </g>
   <g id="text_17">
    <!-- 26 -->
    <g transform="translate(688.624485 363.828537) scale(0.12 -0.12)">
     <defs>
      <path id="DejaVuSans-Bold-32" d="M 1844 884 
L 3897 884 
L 3897 0 
L 506 0 
L 506 884 
L 2209 2388 
Q 2438 2594 2547 2791 
Q 2656 2988 2656 3200 
Q 2656 3528 2436 3728 
Q 2216 3928 1850 3928 
Q 1569 3928 1234 3808 
Q 900 3688 519 3450 
L 519 4475 
Q 925 4609 1322 4679 
Q 1719 4750 2100 4750 
Q 2938 4750 3402 4381 
Q 3866 4013 3866 3353 
Q 3866 2972 3669 2642 
Q 3472 2313 2841 1759 
L 1844 884 
z
" transform="scale(0.015625)"/>
      <path id="DejaVuSans-Bold-36" d="M 2316 2303 
Q 2000 2303 1842 2098 
Q 1684 1894 1684 1484 
Q 1684 1075 1842 870 
Q 2000 666 2316 666 
Q 2634 666 2792 870 
Q 2950 1075 2950 1484 
Q 2950 1894 2792 2098 
Q 2634 2303 2316 2303 
z
M 3803 4544 
L 3803 3681 
Q 3506 3822 3243 3889 
Q 2981 3956 2731 3956 
Q 2194 3956 1894 3657 
Q 1594 3359 1544 2772 
Q 1750 2925 1990 3001 
Q 2231 3078 2516 3078 
Q 3231 3078 3670 2659 
Q 4109 2241 4109 1563 
Q 4109 813 3618 361 
Q 3128 -91 2303 -91 
Q 1394 -91 895 523 
Q 397 1138 397 2266 
Q 397 3422 980 4083 
Q 1563 4744 2578 4744 
Q 2900 4744 3203 4694 
Q 3506 4644 3803 4544 
z
" transform="scale(0.015625)"/>
     </defs>
     <use xlink:href="#DejaVuSans-Bold-32"/>
     <use xlink:href="#DejaVuSans-Bold-36" x="69.580078"/>
    </g>
   </g>
   <g id="text_18">
    <!-- 23 -->
    <g transform="translate(312.944846 376.443359) scale(0.12 -0.12)">
     <defs>
      <path id="DejaVuSans-Bold-33" d="M 2981 2516 
Q 3453 2394 3698 2092 
Q 3944 1791 3944 1325 
Q 3944 631 3412 270 
Q 2881 -91 1863 -91 
Q 1503 -91 1142 -33 
Q 781 25 428 141 
L 428 1069 
Q 766 900 1098 814 
Q 1431 728 1753 728 
Q 2231 728 2486 893 
Q 2741 1059 2741 1369 
Q 2741 1688 2480 1852 
Q 2219 2016 1709 2016 
L 1228 2016 
L 1228 2791 
L 1734 2791 
Q 2188 2791 2409 2933 
Q 2631 3075 2631 3366 
Q 2631 3634 2415 3781 
Q 2200 3928 1806 3928 
Q 1516 3928 1219 3862 
Q 922 3797 628 3669 
L 628 4550 
Q 984 4650 1334 4700 
Q 1684 4750 2022 4750 
Q 2931 4750 3382 4451 
Q 3834 4153 3834 3553 
Q 3834 3144 3618 2883 
Q 3403 2622 2981 2516 
z
" transform="scale(0.015625)"/>
     </defs>
     <use xlink:href="#DejaVuSans-Bold-32"/>
     <use xlink:href="#DejaVuSans-Bold-33" x="69.580078"/>
    </g>
   </g>
   <g id="text_19">
    <!-- 38 -->
    <g transform="translate(341.822901 305.970735) scale(0.12 -0.12)">
     <defs>
      <path id="DejaVuSans-Bold-38" d="M 2228 2088 
Q 1891 2088 1709 1903 
Q 1528 1719 1528 1375 
Q 1528 1031 1709 848 
Q 1891 666 2228 666 
Q 2563 666 2741 848 
Q 2919 1031 2919 1375 
Q 2919 1722 2741 1905 
Q 2563 2088 2228 2088 
z
M 1350 2484 
Q 925 2613 709 2878 
Q 494 3144 494 3541 
Q 494 4131 934 4440 
Q 1375 4750 2228 4750 
Q 3075 4750 3515 4442 
Q 3956 4134 3956 3541 
Q 3956 3144 3739 2878 
Q 3522 2613 3097 2484 
Q 3572 2353 3814 2058 
Q 4056 1763 4056 1313 
Q 4056 619 3595 264 
Q 3134 -91 2228 -91 
Q 1319 -91 855 264 
Q 391 619 391 1313 
Q 391 1763 633 2058 
Q 875 2353 1350 2484 
z
M 1631 3419 
Q 1631 3141 1786 2991 
Q 1941 2841 2228 2841 
Q 2509 2841 2662 2991 
Q 2816 3141 2816 3419 
Q 2816 3697 2662 3845 
Q 2509 3994 2228 3994 
Q 1941 3994 1786 3844 
Q 1631 3694 1631 3419 
z
" transform="scale(0.015625)"/>
     </defs>
     <use xlink:href="#DejaVuSans-Bold-33"/>
     <use xlink:href="#DejaVuSans-Bold-38" x="69.580078"/>
    </g>
   </g>
   <g id="text_20">
    <!-- 44 -->
    <g transform="translate(370.700955 282.634206) scale(0.12 -0.12)">
     <use xlink:href="#DejaVuSans-Bold-34"/>
     <use xlink:href="#DejaVuSans-Bold-34" x="69.580078"/>
    </g>
   </g>
   <g id="text_21">
    <!-- 26 -->
    <g transform="translate(524.893867 350.830106) scale(0.12 -0.12)">
     <use xlink:href="#DejaVuSans-Bold-32"/>
     <use xlink:href="#DejaVuSans-Bold-36" x="69.580078"/>
    </g>
   </g>
   <g id="text_22">
    <!-- 22 -->
    <g transform="translate(553.771921 380.180545) scale(0.12 -0.12)">
     <use xlink:href="#DejaVuSans-Bold-32"/>
     <use xlink:href="#DejaVuSans-Bold-32" x="69.580078"/>
    </g>
   </g>
   <g id="text_23">
    <!-- 35 -->
    <g transform="translate(582.649975 315.169228) scale(0.12 -0.12)">
     <defs>
      <path id="DejaVuSans-Bold-35" d="M 678 4666 
L 3669 4666 
L 3669 3781 
L 1638 3781 
L 1638 3059 
Q 1775 3097 1914 3117 
Q 2053 3138 2203 3138 
Q 3056 3138 3531 2711 
Q 4006 2284 4006 1522 
Q 4006 766 3489 337 
Q 2972 -91 2053 -91 
Q 1656 -91 1267 -14 
Q 878 63 494 219 
L 494 1166 
Q 875 947 1217 837 
Q 1559 728 1863 728 
Q 2300 728 2551 942 
Q 2803 1156 2803 1522 
Q 2803 1891 2551 2103 
Q 2300 2316 1863 2316 
Q 1603 2316 1309 2248 
Q 1016 2181 678 2041 
L 678 4666 
z
" transform="scale(0.015625)"/>
     </defs>
     <use xlink:href="#DejaVuSans-Bold-33"/>
     <use xlink:href="#DejaVuSans-Bold-35" x="69.580078"/>
    </g>
   </g>
   <g id="text_24">
    <!-- 17 -->
    <g transform="translate(736.842887 412.125421) scale(0.12 -0.12)">
     <defs>
      <path id="DejaVuSans-Bold-37" d="M 428 4666 
L 3944 4666 
L 3944 3988 
L 2125 0 
L 953 0 
L 2675 3781 
L 428 3781 
L 428 4666 
z
" transform="scale(0.015625)"/>
     </defs>
     <use xlink:href="#DejaVuSans-Bold-31"/>
     <use xlink:href="#DejaVuSans-Bold-37" x="69.580078"/>
    </g>
   </g>
   <g id="text_25">
    <!-- 23 -->
    <g transform="translate(765.720941 383.100663) scale(0.12 -0.12)">
     <use xlink:href="#DejaVuSans-Bold-32"/>
     <use xlink:href="#DejaVuSans-Bold-33" x="69.580078"/>
    </g>
   </g>
   <g id="text_26">
    <!-- 30 -->
    <g transform="translate(794.598995 352.121974) scale(0.12 -0.12)">
     <defs>
      <path id="DejaVuSans-Bold-30" d="M 2944 2338 
Q 2944 3213 2780 3570 
Q 2616 3928 2228 3928 
Q 1841 3928 1675 3570 
Q 1509 3213 1509 2338 
Q 1509 1453 1675 1090 
Q 1841 728 2228 728 
Q 2613 728 2778 1090 
Q 2944 1453 2944 2338 
z
M 4147 2328 
Q 4147 1169 3647 539 
Q 3147 -91 2228 -91 
Q 1306 -91 806 539 
Q 306 1169 306 2328 
Q 306 3491 806 4120 
Q 1306 4750 2228 4750 
Q 3147 4750 3647 4120 
Q 4147 3491 4147 2328 
z
" transform="scale(0.015625)"/>
     </defs>
     <use xlink:href="#DejaVuSans-Bold-33"/>
     <use xlink:href="#DejaVuSans-Bold-30" x="69.580078"/>
    </g>
   </g>
   <g id="text_27">
    <!-- 0.52 -->
    <g transform="translate(200.516586 482.118667) scale(0.12 -0.12)">
     <defs>
      <path id="DejaVuSans-Bold-2e" d="M 653 1209 
L 1778 1209 
L 1778 0 
L 653 0 
L 653 1209 
z
" transform="scale(0.015625)"/>
     </defs>
     <use xlink:href="#DejaVuSans-Bold-30"/>
     <use xlink:href="#DejaVuSans-Bold-2e" x="69.580078"/>
     <use xlink:href="#DejaVuSans-Bold-35" x="107.568359"/>
     <use xlink:href="#DejaVuSans-Bold-32" x="177.148438"/>
    </g>
   </g>
   <g id="text_28">
    <!-- 15 -->
    <g transform="translate(235.84839 408.463017) scale(0.12 -0.12)">
     <use xlink:href="#DejaVuSans-Bold-31"/>
     <use xlink:href="#DejaVuSans-Bold-35" x="69.580078"/>
    </g>
   </g>
   <g id="text_29">
    <!-- 15 -->
    <g transform="translate(264.726444 405.960532) scale(0.12 -0.12)">
     <use xlink:href="#DejaVuSans-Bold-31"/>
     <use xlink:href="#DejaVuSans-Bold-35" x="69.580078"/>
    </g>
   </g>
   <g id="text_30">
    <!-- 20 -->
    <g transform="translate(418.919357 386.542) scale(0.12 -0.12)">
     <use xlink:href="#DejaVuSans-Bold-32"/>
     <use xlink:href="#DejaVuSans-Bold-30" x="69.580078"/>
    </g>
   </g>
   <g id="text_31">
    <!-- 23 -->
    <g transform="translate(447.797411 365.847214) scale(0.12 -0.12)">
     <use xlink:href="#DejaVuSans-Bold-32"/>
     <use xlink:href="#DejaVuSans-Bold-33" x="69.580078"/>
    </g>
   </g>
   <g id="text_32">
    <!-- 32 -->
    <g transform="translate(476.675465 324.256146) scale(0.12 -0.12)">
     <use xlink:href="#DejaVuSans-Bold-33"/>
     <use xlink:href="#DejaVuSans-Bold-32" x="69.580078"/>
    </g>
   </g>
   <g id="text_33">
    <!-- 37 -->
    <g transform="translate(100.995826 309.188361) scale(0.12 -0.12)">
     <use xlink:href="#DejaVuSans-Bold-33"/>
     <use xlink:href="#DejaVuSans-Bold-37" x="69.580078"/>
    </g>
   </g>
   <g id="text_34">
    <!-- 61 -->
    <g transform="translate(129.87388 201.791225) scale(0.12 -0.12)">
     <use xlink:href="#DejaVuSans-Bold-36"/>
     <use xlink:href="#DejaVuSans-Bold-31" x="69.580078"/>
    </g>
   </g>
   <g id="text_35">
    <!-- 64 -->
    <g transform="translate(158.751934 191.902233) scale(0.12 -0.12)">
     <use xlink:href="#DejaVuSans-Bold-36"/>
     <use xlink:href="#DejaVuSans-Bold-34" x="69.580078"/>
    </g>
   </g>
   <g id="text_36">
    <!-- Out-of-distribution generalization results on the list manipulation domain -->
    <g style="fill: #262626" transform="translate(105.359786 35.136) scale(0.192 -0.192)">
     <defs>
      <path id="DejaVuSans-4f" d="M 2522 4238 
Q 1834 4238 1429 3725 
Q 1025 3213 1025 2328 
Q 1025 1447 1429 934 
Q 1834 422 2522 422 
Q 3209 422 3611 934 
Q 4013 1447 4013 2328 
Q 4013 3213 3611 3725 
Q 3209 4238 2522 4238 
z
M 2522 4750 
Q 3503 4750 4090 4092 
Q 4678 3434 4678 2328 
Q 4678 1225 4090 567 
Q 3503 -91 2522 -91 
Q 1538 -91 948 565 
Q 359 1222 359 2328 
Q 359 3434 948 4092 
Q 1538 4750 2522 4750 
z
" transform="scale(0.015625)"/>
     </defs>
     <use xlink:href="#DejaVuSans-4f"/>
     <use xlink:href="#DejaVuSans-75" x="78.710938"/>
     <use xlink:href="#DejaVuSans-74" x="142.089844"/>
     <use xlink:href="#DejaVuSans-2d" x="181.298828"/>
     <use xlink:href="#DejaVuSans-6f" x="219.257812"/>
     <use xlink:href="#DejaVuSans-66" x="280.439453"/>
     <use xlink:href="#DejaVuSans-2d" x="310.144531"/>
     <use xlink:href="#DejaVuSans-64" x="346.228516"/>
     <use xlink:href="#DejaVuSans-69" x="409.705078"/>
     <use xlink:href="#DejaVuSans-73" x="437.488281"/>
     <use xlink:href="#DejaVuSans-74" x="489.587891"/>
     <use xlink:href="#DejaVuSans-72" x="528.796875"/>
     <use xlink:href="#DejaVuSans-69" x="569.910156"/>
     <use xlink:href="#DejaVuSans-62" x="597.693359"/>
     <use xlink:href="#DejaVuSans-75" x="661.169922"/>
     <use xlink:href="#DejaVuSans-74" x="724.548828"/>
     <use xlink:href="#DejaVuSans-69" x="763.757812"/>
     <use xlink:href="#DejaVuSans-6f" x="791.541016"/>
     <use xlink:href="#DejaVuSans-6e" x="852.722656"/>
     <use xlink:href="#DejaVuSans-20" x="916.101562"/>
     <use xlink:href="#DejaVuSans-67" x="947.888672"/>
     <use xlink:href="#DejaVuSans-65" x="1011.365234"/>
     <use xlink:href="#DejaVuSans-6e" x="1072.888672"/>
     <use xlink:href="#DejaVuSans-65" x="1136.267578"/>
     <use xlink:href="#DejaVuSans-72" x="1197.791016"/>
     <use xlink:href="#DejaVuSans-61" x="1238.904297"/>
     <use xlink:href="#DejaVuSans-6c" x="1300.183594"/>
     <use xlink:href="#DejaVuSans-69" x="1327.966797"/>
     <use xlink:href="#DejaVuSans-7a" x="1355.75"/>
     <use xlink:href="#DejaVuSans-61" x="1408.240234"/>
     <use xlink:href="#DejaVuSans-74" x="1469.519531"/>
     <use xlink:href="#DejaVuSans-69" x="1508.728516"/>
     <use xlink:href="#DejaVuSans-6f" x="1536.511719"/>
     <use xlink:href="#DejaVuSans-6e" x="1597.693359"/>
     <use xlink:href="#DejaVuSans-20" x="1661.072266"/>
     <use xlink:href="#DejaVuSans-72" x="1692.859375"/>
     <use xlink:href="#DejaVuSans-65" x="1731.722656"/>
     <use xlink:href="#DejaVuSans-73" x="1793.246094"/>
     <use xlink:href="#DejaVuSans-75" x="1845.345703"/>
     <use xlink:href="#DejaVuSans-6c" x="1908.724609"/>
     <use xlink:href="#DejaVuSans-74" x="1936.507812"/>
     <use xlink:href="#DejaVuSans-73" x="1975.716797"/>
     <use xlink:href="#DejaVuSans-20" x="2027.816406"/>
     <use xlink:href="#DejaVuSans-6f" x="2059.603516"/>
     <use xlink:href="#DejaVuSans-6e" x="2120.785156"/>
     <use xlink:href="#DejaVuSans-20" x="2184.164062"/>
     <use xlink:href="#DejaVuSans-74" x="2215.951172"/>
     <use xlink:href="#DejaVuSans-68" x="2255.160156"/>
     <use xlink:href="#DejaVuSans-65" x="2318.539062"/>
     <use xlink:href="#DejaVuSans-20" x="2380.0625"/>
     <use xlink:href="#DejaVuSans-6c" x="2411.849609"/>
     <use xlink:href="#DejaVuSans-69" x="2439.632812"/>
     <use xlink:href="#DejaVuSans-73" x="2467.416016"/>
     <use xlink:href="#DejaVuSans-74" x="2519.515625"/>
     <use xlink:href="#DejaVuSans-20" x="2558.724609"/>
     <use xlink:href="#DejaVuSans-6d" x="2590.511719"/>
     <use xlink:href="#DejaVuSans-61" x="2687.923828"/>
     <use xlink:href="#DejaVuSans-6e" x="2749.203125"/>
     <use xlink:href="#DejaVuSans-69" x="2812.582031"/>
     <use xlink:href="#DejaVuSans-70" x="2840.365234"/>
     <use xlink:href="#DejaVuSans-75" x="2903.841797"/>
     <use xlink:href="#DejaVuSans-6c" x="2967.220703"/>
     <use xlink:href="#DejaVuSans-61" x="2995.003906"/>
     <use xlink:href="#DejaVuSans-74" x="3056.283203"/>
     <use xlink:href="#DejaVuSans-69" x="3095.492188"/>
     <use xlink:href="#DejaVuSans-6f" x="3123.275391"/>
     <use xlink:href="#DejaVuSans-6e" x="3184.457031"/>
     <use xlink:href="#DejaVuSans-20" x="3247.835938"/>
     <use xlink:href="#DejaVuSans-64" x="3279.623047"/>
     <use xlink:href="#DejaVuSans-6f" x="3343.099609"/>
     <use xlink:href="#DejaVuSans-6d" x="3404.28125"/>
     <use xlink:href="#DejaVuSans-61" x="3501.693359"/>
     <use xlink:href="#DejaVuSans-69" x="3562.972656"/>
     <use xlink:href="#DejaVuSans-6e" x="3590.755859"/>
    </g>
   </g>
   <g id="legend_1">
    <g id="patch_31">
     <path d="M 683.796321 132.7165 
L 814.737571 132.7165 
Q 818.257571 132.7165 818.257571 129.1965 
L 818.257571 53.456 
Q 818.257571 49.936 814.737571 49.936 
L 683.796321 49.936 
Q 680.276321 49.936 680.276321 53.456 
L 680.276321 129.1965 
Q 680.276321 132.7165 683.796321 132.7165 
z
" style="fill: #ffffff; opacity: 0.8; stroke: #cccccc; stroke-width: 0.8; stroke-linejoin: miter"/>
    </g>
    <g id="patch_32">
     <path d="M 687.316321 70.34925 
L 722.516321 70.34925 
L 722.516321 58.02925 
L 687.316321 58.02925 
z
" style="fill: #115a7b; stroke: #ffffff; stroke-width: 0.8; stroke-linejoin: miter"/>
    </g>
    <g id="text_37">
     <!-- Baseline -->
     <g style="fill: #262626" transform="translate(736.596321 70.34925) scale(0.176 -0.176)">
      <defs>
       <path id="DejaVuSans-42" d="M 1259 2228 
L 1259 519 
L 2272 519 
Q 2781 519 3026 730 
Q 3272 941 3272 1375 
Q 3272 1813 3026 2020 
Q 2781 2228 2272 2228 
L 1259 2228 
z
M 1259 4147 
L 1259 2741 
L 2194 2741 
Q 2656 2741 2882 2914 
Q 3109 3088 3109 3444 
Q 3109 3797 2882 3972 
Q 2656 4147 2194 4147 
L 1259 4147 
z
M 628 4666 
L 2241 4666 
Q 2963 4666 3353 4366 
Q 3744 4066 3744 3513 
Q 3744 3084 3544 2831 
Q 3344 2578 2956 2516 
Q 3422 2416 3680 2098 
Q 3938 1781 3938 1306 
Q 3938 681 3513 340 
Q 3088 0 2303 0 
L 628 0 
L 628 4666 
z
" transform="scale(0.015625)"/>
      </defs>
      <use xlink:href="#DejaVuSans-42"/>
      <use xlink:href="#DejaVuSans-61" x="68.603516"/>
      <use xlink:href="#DejaVuSans-73" x="129.882812"/>
      <use xlink:href="#DejaVuSans-65" x="181.982422"/>
      <use xlink:href="#DejaVuSans-6c" x="243.505859"/>
      <use xlink:href="#DejaVuSans-69" x="271.289062"/>
      <use xlink:href="#DejaVuSans-6e" x="299.072266"/>
      <use xlink:href="#DejaVuSans-65" x="362.451172"/>
     </g>
    </g>
    <g id="patch_33">
     <path d="M 687.316321 96.18275 
L 722.516321 96.18275 
L 722.516321 83.86275 
L 687.316321 83.86275 
z
" style="fill: #a3ada1; stroke: #ffffff; stroke-width: 0.8; stroke-linejoin: miter"/>
    </g>
    <g id="text_38">
     <!-- ExeDec -->
     <g style="fill: #262626" transform="translate(736.596321 96.18275) scale(0.176 -0.176)">
      <defs>
       <path id="DejaVuSans-78" d="M 3513 3500 
L 2247 1797 
L 3578 0 
L 2900 0 
L 1881 1375 
L 863 0 
L 184 0 
L 1544 1831 
L 300 3500 
L 978 3500 
L 1906 2253 
L 2834 3500 
L 3513 3500 
z
" transform="scale(0.015625)"/>
       <path id="DejaVuSans-44" d="M 1259 4147 
L 1259 519 
L 2022 519 
Q 2988 519 3436 956 
Q 3884 1394 3884 2338 
Q 3884 3275 3436 3711 
Q 2988 4147 2022 4147 
L 1259 4147 
z
M 628 4666 
L 1925 4666 
Q 3281 4666 3915 4102 
Q 4550 3538 4550 2338 
Q 4550 1131 3912 565 
Q 3275 0 1925 0 
L 628 0 
L 628 4666 
z
" transform="scale(0.015625)"/>
      </defs>
      <use xlink:href="#DejaVuSans-45"/>
      <use xlink:href="#DejaVuSans-78" x="63.183594"/>
      <use xlink:href="#DejaVuSans-65" x="119.238281"/>
      <use xlink:href="#DejaVuSans-44" x="180.761719"/>
      <use xlink:href="#DejaVuSans-65" x="257.763672"/>
      <use xlink:href="#DejaVuSans-63" x="319.287109"/>
     </g>
    </g>
    <g id="patch_34">
     <path d="M 687.316321 122.01625 
L 722.516321 122.01625 
L 722.516321 109.69625 
L 687.316321 109.69625 
z
" style="fill: #1b541f; stroke: #ffffff; stroke-width: 0.8; stroke-linejoin: miter"/>
    </g>
    <g id="text_39">
     <!-- TIIPS -->
     <g style="fill: #262626" transform="translate(736.596321 122.01625) scale(0.176 -0.176)">
      <defs>
       <path id="DejaVuSans-49" d="M 628 4666 
L 1259 4666 
L 1259 0 
L 628 0 
L 628 4666 
z
" transform="scale(0.015625)"/>
       <path id="DejaVuSans-50" d="M 1259 4147 
L 1259 2394 
L 2053 2394 
Q 2494 2394 2734 2622 
Q 2975 2850 2975 3272 
Q 2975 3691 2734 3919 
Q 2494 4147 2053 4147 
L 1259 4147 
z
M 628 4666 
L 2053 4666 
Q 2838 4666 3239 4311 
Q 3641 3956 3641 3272 
Q 3641 2581 3239 2228 
Q 2838 1875 2053 1875 
L 1259 1875 
L 1259 0 
L 628 0 
L 628 4666 
z
" transform="scale(0.015625)"/>
      </defs>
      <use xlink:href="#DejaVuSans-54"/>
      <use xlink:href="#DejaVuSans-49" x="61.083984"/>
      <use xlink:href="#DejaVuSans-49" x="90.576172"/>
      <use xlink:href="#DejaVuSans-50" x="120.068359"/>
      <use xlink:href="#DejaVuSans-53" x="180.371094"/>
     </g>
    </g>
   </g>
  </g>
 </g>
 <defs>
  <clipPath id="pf50d49877b">
   <rect x="85.236" y="41.136" width="741.821571" height="448.516"/>
  </clipPath>
 </defs>
</svg>
